<svg viewBox="-17 0 156 156" version="1.1" xmlns="http://www.w3.org/2000/svg" xmlns:xlink="http://www.w3.org/1999/xlink">
    <g id="Logo-Mark">
        <path d="M42.89,155.5403 L43.905,155.5403 C43.873,155.5203 43.84,155.5083 43.81,155.4913 C43.501,155.5063 43.2,155.5403 42.89,155.5403" id="Fill-11" fill="#ffffff"></path>
        <path d="M78.663,149.0569 C80.256,149.0569 81.186,148.5029 82.339,147.6029 C86.899,144.0419 88.778,139.0639 88.778,132.5969 L88.778,109.7199 L88.778,100.9099 L88.778,55.9899 L88.778,35.0659 C74.49,51.6589 65.836,73.2379 65.836,96.8519 L65.836,109.6539 L65.836,132.5969 C65.836,135.4389 65.266,138.1309 64.314,140.6389 C67.138,145.6569 72.386,149.0569 78.663,149.0569" id="Fill-12" fill="#ffffff"></path>
        <path d="M98.6088,132.595 L98.6088,113.475 L98.6088,56.172 L98.6088,39.733 C98.6088,22.753 107.8438,7.934 121.5538,0 L121.5538,20.695 L121.5538,79.468 L121.5538,113.475 L121.3858,113.475 C119.4398,137.023 99.7188,155.54 75.6668,155.54 C88.3378,155.54 98.6088,145.267 98.6088,132.595" id="Fill-13" fill="#ffffff"></path>
        <path d="M33.619,151.9622 C27.211,147.8902 22.945,140.7502 22.945,132.5952 L22.945,113.4752 L22.945,56.1722 L22.945,39.7332 C22.945,22.7532 13.71,7.9342 0,0.0002 L0,20.6942 L0,79.4682 L0,113.4752 L0.168,113.4752 C1.842,133.7262 16.672,150.2162 36.086,154.4502 C35.215,153.6672 34.391,152.8392 33.619,151.9622" id="Fill-14" fill="#ffffff"></path>
        <path d="M33.619,151.9622 C34.391,152.8392 35.215,153.6672 36.086,154.4502 C39.248,155.1422 42.519,155.5402 45.888,155.5402 C41.37,155.5402 37.17,154.2152 33.619,151.9622" id="Fill-15" fill="#ffffff"></path>
        <path d="M55.7206,132.597 L55.7206,109.654 L55.7206,96.852 C55.7206,73.238 47.0626,51.659 32.7756,35.066 L32.7756,55.99 L32.7756,100.91 L32.7756,109.72 L32.7756,132.597 C32.7756,145.267 43.0516,155.54 55.7206,155.54 L78.6626,155.54 C65.9896,155.54 55.7206,145.267 55.7206,132.597" id="Fill-16" fill="#ffffff"></path>
        <polygon id="Fill-17" fill="#ffffff" points="49.8866 38.677 54.0456 25.869 43.1466 17.959 56.6196 17.959 60.7786 5.153 64.9436 17.959 78.4076 17.959 67.5136 25.874 71.6766 38.677 60.7786 30.762"></polygon>
    </g>
</svg>
