<svg width="29" height="21" viewBox="0 0 29 21" xmlns="http://www.w3.org/2000/svg">
  <circle cx="10.4635" cy="9.86362" r="8.0015" />
  <circle cx="16.9385" cy="8.00149" r="8.0015" transform="rotate(-90 16.9385 8.00149)" />
  <path
    d="M2.73667 18.6414C2.50346 18.7173 2.28265 18.4965 2.35856 18.2633L3.84333 13.7013C3.91264 13.4884 4.18238 13.4237 4.34073 13.5821L7.41794 16.6593C7.57629 16.8176 7.5116 17.0874 7.29865 17.1567L2.73667 18.6414Z" />
  <path
    d="M25.7486 16.1481C25.8342 16.3868 25.6036 16.6174 25.365 16.5318L20.5327 14.7991C20.3255 14.7248 20.2662 14.4602 20.4218 14.3046L23.5214 11.2049C23.6771 11.0493 23.9417 11.1087 24.016 11.3158L25.7486 16.1481Z" />
</svg>
