<svg width="17" height="18" viewBox="0 0 17 18"  xmlns="http://www.w3.org/2000/svg">
<path d="M0 3.51537C0 3.10835 0.24669 2.74195 0.62381 2.58883L5.62381 0.558754C6.28135 0.291781 7 0.77562 7 1.4853V14.9142C7 15.343 6.72665 15.7241 6.3205 15.8615L1.3205 17.5532C0.67215 17.7726 0 17.2904 0 16.606V3.51537Z" />
<path d="M12 3.51537C12 3.10835 11.7533 2.74195 11.3762 2.58883L6.37619 0.558754C5.71865 0.291781 5 0.77562 5 1.4853V14.9142C5 15.343 5.27335 15.7241 5.6795 15.8615L10.6795 17.5532C11.3278 17.7726 12 17.2904 12 16.606V3.51537Z" />
<path d="M10 3.51537C10 3.10835 10.2467 2.74195 10.6238 2.58883L15.6238 0.558754C16.2814 0.291781 17 0.77562 17 1.4853V14.9142C17 15.343 16.7267 15.7241 16.3205 15.8615L11.3205 17.5532C10.6722 17.7726 10 17.2904 10 16.606V3.51537Z" />
<path d="M6 6V13" stroke="white" stroke-width="0.76" stroke-linecap="round"/>
<path d="M11 6V13" stroke="white" stroke-width="0.76" stroke-linecap="round"/>
</svg>
