<?xml version="1.0" encoding="utf-8"?>
<!-- Generator: Adobe Illustrator 23.0.2, SVG Export Plug-In . SVG Version: 6.00 Build 0)  -->
<svg class="fill-red" version="1.1" id="Layer_1" xmlns="http://www.w3.org/2000/svg" xmlns:xlink="http://www.w3.org/1999/xlink" x="0px" y="0px"
	 viewBox="0 0 512 128" style="enable-background:new 0 0 512 128;" xml:space="preserve">
<title>UU Blue Logo</title>
<desc>Created with Sketch.</desc>
<g id="UU-Blue-Logo">
	<g transform="translate(0.000000, 0.000000)">
		<g id="Clip-6">
		</g>
		<defs>
			<filter id="Adobe_OpacityMaskFilter" filterUnits="userSpaceOnUse" x="147.5" y="22.2" width="43.5" height="83.8">
				<feColorMatrix  type="matrix" values="1 0 0 0 0  0 1 0 0 0  0 0 1 0 0  0 0 0 1 0"/>
			</filter>
		</defs>
		<mask maskUnits="userSpaceOnUse" x="147.5" y="22.2" width="43.5" height="83.8" id="mask-2_1_">
			<g class="st0">
				<polygon id="path-1_1_" class="st1" points="0,125.8 511.8,125.8 511.8,1.3 0,1.3 				"/>
			</g>
		</mask>
		<path id="Fill-1" class="st2" d="M147.5,22.2h14.2v62.4c0,6.1,2.4,9,7.6,9c5.2,0,7.6-3,7.6-9V22.2H191V84c0,14.2-8.2,22-21.7,22
			c-13.5,0-21.7-7.8-21.7-22V22.2z"/>
		<defs>
			<filter id="Adobe_OpacityMaskFilter_1_" filterUnits="userSpaceOnUse" x="204.7" y="22.2" width="43.5" height="82.6">
				<feColorMatrix  type="matrix" values="1 0 0 0 0  0 1 0 0 0  0 0 1 0 0  0 0 0 1 0"/>
			</filter>
		</defs>
		<mask maskUnits="userSpaceOnUse" x="204.7" y="22.2" width="43.5" height="82.6" id="mask-2_2_">
			<g class="st3">
				<polygon id="path-1_2_" class="st1" points="0,125.8 511.8,125.8 511.8,1.3 0,1.3 				"/>
			</g>
		</mask>
		<polygon id="Fill-3" class="st4" points="204.7,104.9 204.7,22.2 217.9,22.2 235.2,69.5 235.4,69.5 235.4,22.2 248.2,22.2
			248.2,104.9 235.9,104.9 217.8,53.3 217.5,53.3 217.5,104.9 		"/>
		<defs>
			<filter id="Adobe_OpacityMaskFilter_2_" filterUnits="userSpaceOnUse" x="263.9" y="22.2" width="14.2" height="82.6">
				<feColorMatrix  type="matrix" values="1 0 0 0 0  0 1 0 0 0  0 0 1 0 0  0 0 0 1 0"/>
			</filter>
		</defs>
		<mask maskUnits="userSpaceOnUse" x="263.9" y="22.2" width="14.2" height="82.6" id="mask-2_3_">
			<g class="st5">
				<polygon id="path-1_3_" class="st1" points="0,125.8 511.8,125.8 511.8,1.3 0,1.3 				"/>
			</g>
		</mask>
		<polygon id="Fill-5" class="st6" points="263.9,104.9 278.1,104.9 278.1,22.2 263.9,22.2 		"/>
		<defs>
			<filter id="Adobe_OpacityMaskFilter_3_" filterUnits="userSpaceOnUse" x="288.3" y="22.2" width="41.7" height="82.6">
				<feColorMatrix  type="matrix" values="1 0 0 0 0  0 1 0 0 0  0 0 1 0 0  0 0 0 1 0"/>
			</filter>
		</defs>
		<mask maskUnits="userSpaceOnUse" x="288.3" y="22.2" width="41.7" height="82.6" id="mask-2_4_">
			<g class="st7">
				<polygon id="path-1_4_" class="st1" points="0,125.8 511.8,125.8 511.8,1.3 0,1.3 				"/>
			</g>
		</mask>
		<polygon id="Fill-7" class="st8" points="302,34.6 288.3,34.6 288.3,22.2 329.9,22.2 329.9,34.6 316.2,34.6 316.2,104.9
			302,104.9 		"/>
		<defs>
			<filter id="Adobe_OpacityMaskFilter_4_" filterUnits="userSpaceOnUse" x="338.3" y="22.2" width="39.6" height="82.6">
				<feColorMatrix  type="matrix" values="1 0 0 0 0  0 1 0 0 0  0 0 1 0 0  0 0 0 1 0"/>
			</filter>
		</defs>
		<mask maskUnits="userSpaceOnUse" x="338.3" y="22.2" width="39.6" height="82.6" id="mask-2_5_">
			<g class="st9">
				<polygon id="path-1_5_" class="st1" points="0,125.8 511.8,125.8 511.8,1.3 0,1.3 				"/>
			</g>
		</mask>
		<polygon id="Fill-8" class="st10" points="338.3,104.9 338.3,22.2 376.3,22.2 376.3,34.6 352.5,34.6 352.5,55.9 370.8,55.9
			370.8,68.2 352.5,68.2 352.5,92.5 377.9,92.5 377.9,104.9 		"/>
		<defs>
			<filter id="Adobe_OpacityMaskFilter_5_" filterUnits="userSpaceOnUse" x="414.5" y="22.2" width="43.5" height="83.8">
				<feColorMatrix  type="matrix" values="1 0 0 0 0  0 1 0 0 0  0 0 1 0 0  0 0 0 1 0"/>
			</filter>
		</defs>
		<mask maskUnits="userSpaceOnUse" x="414.5" y="22.2" width="43.5" height="83.8" id="mask-2_6_">
			<g class="st11">
				<polygon id="path-1_6_" class="st1" points="0,125.8 511.8,125.8 511.8,1.3 0,1.3 				"/>
			</g>
		</mask>
		<path id="Fill-9" class="st12" d="M414.5,22.2h14.2v62.4c0,6.1,2.4,9,7.6,9c5.2,0,7.6-3,7.6-9V22.2H458V84c0,14.2-8.2,22-21.7,22
			c-13.5,0-21.7-7.8-21.7-22V22.2z"/>
		<defs>
			<filter id="Adobe_OpacityMaskFilter_6_" filterUnits="userSpaceOnUse" x="468.1" y="21.1" width="43.7" height="84.9">
				<feColorMatrix  type="matrix" values="1 0 0 0 0  0 1 0 0 0  0 0 1 0 0  0 0 0 1 0"/>
			</filter>
		</defs>
		<mask maskUnits="userSpaceOnUse" x="468.1" y="21.1" width="43.7" height="84.9" id="mask-2_7_">
			<g class="st13">
				<polygon id="path-1_7_" class="st1" points="0,125.8 511.8,125.8 511.8,1.3 0,1.3 				"/>
			</g>
		</mask>
		<path id="Fill-10" class="st14" d="M497.6,42.6c-0.6-7.1-4.3-9.2-7.6-9.2c-4.6,0-7.1,3-7.1,8.1c0,14.1,28.8,20.8,28.8,43.3
			c0,13.6-9.2,21.2-22.4,21.2c-13.2,0-20.7-10.5-21.3-22.9l13.5-1.9c0.6,8.4,3.9,12.5,8.5,12.5c4.9,0,8.2-2.6,8.2-7.6
			c0-16.4-28.8-20.7-28.8-44.4c0-13.2,8-20.6,22-20.6c11.6,0,18.4,8.4,19.7,20L497.6,42.6z"/>
		<defs>
			<filter id="Adobe_OpacityMaskFilter_7_" filterUnits="userSpaceOnUse" x="34.3" y="125.8" width="0.8" height="0">
				<feColorMatrix  type="matrix" values="1 0 0 0 0  0 1 0 0 0  0 0 1 0 0  0 0 0 1 0"/>
			</filter>
		</defs>
		<mask maskUnits="userSpaceOnUse" x="34.3" y="125.8" width="0.8" height="0" id="mask-2_8_">
			<g class="st15">
				<polygon id="path-1_8_" class="st1" points="0,125.8 511.8,125.8 511.8,1.3 0,1.3 				"/>
			</g>
		</mask>
		<path id="Fill-11" class="st16" d="M34.3,125.8h0.8c0,0-0.1,0-0.1,0C34.8,125.8,34.6,125.8,34.3,125.8"/>
		<defs>
			<filter id="Adobe_OpacityMaskFilter_8_" filterUnits="userSpaceOnUse" x="51.5" y="29.4" width="19.6" height="91.3">
				<feColorMatrix  type="matrix" values="1 0 0 0 0  0 1 0 0 0  0 0 1 0 0  0 0 0 1 0"/>
			</filter>
		</defs>
		<mask maskUnits="userSpaceOnUse" x="51.5" y="29.4" width="19.6" height="91.3" id="mask-2_9_">
			<g class="st17">
				<polygon id="path-1_9_" class="st1" points="0,125.8 511.8,125.8 511.8,1.3 0,1.3 				"/>
			</g>
		</mask>
		<path id="Fill-12" class="st18" d="M63,120.6c1.3,0,2-0.4,2.9-1.2c3.7-2.9,5.2-6.8,5.2-12V89.1v-7.1v-36V29.4
			C59.7,42.6,52.7,59.9,52.7,78.8v10.3v18.4c0,2.3-0.5,4.4-1.2,6.4C53.8,117.9,58,120.6,63,120.6"/>
		<defs>
			<filter id="Adobe_OpacityMaskFilter_9_" filterUnits="userSpaceOnUse" x="60.6" y="1.3" width="36.7" height="124.6">
				<feColorMatrix  type="matrix" values="1 0 0 0 0  0 1 0 0 0  0 0 1 0 0  0 0 0 1 0"/>
			</filter>
		</defs>
		<mask maskUnits="userSpaceOnUse" x="60.6" y="1.3" width="36.7" height="124.6" id="mask-2_10_">
			<g class="st19">
				<polygon id="path-1_10_" class="st1" points="0,125.8 511.8,125.8 511.8,1.3 0,1.3 				"/>
			</g>
		</mask>
		<path id="Fill-13" class="st20" d="M79,107.5V92.1V46.3V33.1c0-13.6,7.4-25.5,18.4-31.8v16.6v47.1v27.2h-0.1
			c-1.6,18.9-17.4,33.7-36.6,33.7C70.7,125.8,79,117.6,79,107.5"/>
		<defs>
			<filter id="Adobe_OpacityMaskFilter_10_" filterUnits="userSpaceOnUse" x="0" y="1.3" width="28.9" height="123.7">
				<feColorMatrix  type="matrix" values="1 0 0 0 0  0 1 0 0 0  0 0 1 0 0  0 0 0 1 0"/>
			</filter>
		</defs>
		<mask maskUnits="userSpaceOnUse" x="0" y="1.3" width="28.9" height="123.7" id="mask-2_11_">
			<g class="st21">
				<polygon id="path-1_11_" class="st1" points="0,125.8 511.8,125.8 511.8,1.3 0,1.3 				"/>
			</g>
		</mask>
		<path id="Fill-14" class="st22" d="M26.9,123c-5.1-3.3-8.5-9-8.5-15.5V92.1V46.3V33.1C18.4,19.5,11,7.6,0,1.3v16.6v47.1v27.2h0.1
			c1.3,16.2,13.2,29.4,28.8,32.8C28.2,124.3,27.5,123.7,26.9,123"/>
		<defs>
			<filter id="Adobe_OpacityMaskFilter_11_" filterUnits="userSpaceOnUse" x="26.9" y="123" width="9.8" height="2.9">
				<feColorMatrix  type="matrix" values="1 0 0 0 0  0 1 0 0 0  0 0 1 0 0  0 0 0 1 0"/>
			</filter>
		</defs>
		<mask maskUnits="userSpaceOnUse" x="26.9" y="123" width="9.8" height="2.9" id="mask-2_12_">
			<g class="st23">
				<polygon id="path-1_12_" class="st1" points="0,125.8 511.8,125.8 511.8,1.3 0,1.3 				"/>
			</g>
		</mask>
		<path id="Fill-15" class="st24" d="M26.9,123c0.6,0.7,1.3,1.4,2,2c2.5,0.6,5.2,0.9,7.8,0.9C33.1,125.8,29.8,124.8,26.9,123"/>
		<defs>
			<filter id="Adobe_OpacityMaskFilter_12_" filterUnits="userSpaceOnUse" x="26.2" y="29.4" width="36.7" height="96.5">
				<feColorMatrix  type="matrix" values="1 0 0 0 0  0 1 0 0 0  0 0 1 0 0  0 0 0 1 0"/>
			</filter>
		</defs>
		<mask maskUnits="userSpaceOnUse" x="26.2" y="29.4" width="36.7" height="96.5" id="mask-2_13_">
			<g class="st25">
				<polygon id="path-1_13_" class="st1" points="0,125.8 511.8,125.8 511.8,1.3 0,1.3 				"/>
			</g>
		</mask>
		<path id="Fill-16" class="st26" d="M44.6,107.5V89.1V78.8c0-18.9-6.9-36.2-18.4-49.5v16.8v36v7.1v18.3c0,10.1,8.2,18.4,18.4,18.4
			H63C52.8,125.8,44.6,117.6,44.6,107.5"/>
		<defs>
			<filter id="Adobe_OpacityMaskFilter_13_" filterUnits="userSpaceOnUse" x="34.6" y="5.4" width="28.2" height="26.8">
				<feColorMatrix  type="matrix" values="1 0 0 0 0  0 1 0 0 0  0 0 1 0 0  0 0 0 1 0"/>
			</filter>
		</defs>
		<mask maskUnits="userSpaceOnUse" x="34.6" y="5.4" width="28.2" height="26.8" id="mask-2_14_">
			<g class="st27">
				<polygon id="path-1_14_" class="st1" points="0,125.8 511.8,125.8 511.8,1.3 0,1.3 				"/>
			</g>
		</mask>
		<polygon id="Fill-17" class="st28" points="40,32.2 43.3,22 34.6,15.7 45.3,15.7 48.7,5.4 52,15.7 62.8,15.7 54.1,22 57.4,32.2
			48.7,25.9 		"/>
	</g>
</g>
</svg>
